<svg xmlns="http://www.w3.org/2000/svg" version="1.1" xmlns:xlink="http://www.w3.org/1999/xlink" xmlns:svgjs="http://svgjs.dev/svgjs" width="1500" height="1500" viewBox="0 0 1500 1500"><rect width="1500" height="1500" fill="#5d3c94"></rect><g transform="matrix(0.6666666666666666,0,0,0.6666666666666666,249.39393939393938,559.1994905901602)"><svg viewBox="0 0 396 151" data-background-color="#5d3c94" preserveAspectRatio="xMidYMid meet" height="571" width="1500" xmlns="http://www.w3.org/2000/svg" xmlns:xlink="http://www.w3.org/1999/xlink"><g id="tight-bounds" transform="matrix(1,0,0,1,0.2400000000000091,0.18531590425347133)"><svg viewBox="0 0 395.52 150.62936819149306" height="150.62936819149306" width="395.52"><g><svg viewBox="0 0 395.52 150.62936819149306" height="150.62936819149306" width="395.52"><g transform="matrix(1,0,0,1,0,68.08796588560759)"><svg viewBox="0 0 395.52 82.54140230588547" height="82.54140230588547" width="395.52"><g id="textblocktransform"><svg viewBox="0 0 395.52 82.54140230588547" height="82.54140230588547" width="395.52" id="textblock"><g><svg viewBox="0 0 395.52 41.98281363786826" height="41.98281363786826" width="395.52"><g transform="matrix(1,0,0,1,0,0)"><svg width="395.52" viewBox="4.05 -36.55 453.11 48.1" height="41.98281363786826" data-palette-color="#f9d264"><path d="M6 0.6Q4.9 0.6 4.05-0.1L4.05-0.1Q4.7-2 4.7-6L4.7-6 4.7-28.45Q4.7-32.45 4.35-34.55L4.35-34.55Q4.9-35.1 6.45-35.1L6.45-35.1Q7.5-35.1 7.75-34.85L7.75-34.85 11.35-29.7Q17.3-21.2 21.23-15.48 25.15-9.75 27.15-6.2L27.15-6.2 26.1-30.55Q26-32.3 26.43-33.48 26.85-34.65 27.8-35L27.8-35Q28-35.05 28.4-35.05L28.4-35.05Q29.15-35.05 29.8-34.75L29.8-34.75Q29.7-33.75 29.7-33L29.7-33 29.75-30.6 29.75-5.9Q29.75-4.15 29.8-2.63 29.85-1.1 30-0.1L30-0.1Q29.75 0.2 29.15 0.35 28.55 0.5 27.85 0.5L27.85 0.5Q27.2 0.5 26.8 0.35L26.8 0.35Q21.35-6.25 16.13-14 10.9-21.75 7.45-27.75L7.45-27.75 8.35-2.15Q8.4-0.95 7.68-0.18 6.95 0.6 6 0.6L6 0.6ZM61-3.95Q61.55-3.15 61.55-2.25L61.55-2.25Q61.55-1.1 60.47-0.3 59.4 0.5 57.85 0.5L57.85 0.5Q55.55 0.5 54.4-1.1 53.25-2.7 53.25-6.1L53.25-6.1 53.25-6.9Q51.7-3.5 48.95-1.48 46.2 0.55 42.8 0.55L42.8 0.55Q39.9 0.55 38.2-1.03 36.5-2.6 36.5-5.25L36.5-5.25Q36.5-8.25 38.8-10.33 41.1-12.4 44.85-13.45L44.85-13.45Q48.85-14.5 53-14.35L53-14.35 53-15.6Q53-20.05 51.62-22.15 50.25-24.25 47.05-24.25L47.05-24.25Q45-24.25 43.6-23.3 42.2-22.35 42.2-20.25L42.2-20.25Q42.2-19.15 42.72-18.13 43.25-17.1 44.3-16.7L44.3-16.7Q43.4-15.65 41.65-15.65L41.65-15.65Q39.85-15.65 38.75-16.98 37.65-18.3 37.65-20.1L37.65-20.1Q37.65-23 40.27-24.58 42.9-26.15 47.45-26.15L47.45-26.15Q52.7-26.15 55.17-23.55 57.65-20.95 57.65-15.35L57.65-15.35 57.65-5.65Q57.65-3 59.4-3L59.4-3Q59.8-3 60.25-3.25 60.7-3.5 61-3.95L61-3.95ZM44.75-2.55Q46.6-2.55 48.55-3.98 50.5-5.4 51.8-7.73 53.1-10.05 53.15-12.65L53.15-12.65Q51.3-12.75 49.25-12.48 47.2-12.2 45.8-11.6L45.8-11.6Q43.7-10.8 42.57-9.45 41.45-8.1 41.45-6.25L41.45-6.25Q41.45-4.65 42.25-3.6 43.05-2.55 44.75-2.55L44.75-2.55ZM77.15-26.15Q79.75-26.15 81.37-24.73 83-23.3 83-20.85L83-20.85Q83-19.1 82-18 81-16.9 79.59-16.9L79.59-16.9Q78.34-16.9 77.8-17.55L77.8-17.55Q78.34-18.4 78.55-19.1 78.75-19.8 78.75-20.75L78.75-20.75Q78.75-23.75 76-23.75L76-23.75Q73.84-23.75 72.42-20.85 71-17.95 71-12L71-12Q71-5.85 71.09-3.93 71.2-2 71.75-0.55L71.75-0.55Q71.34-0.15 70.67 0.15 70 0.45 69.09 0.5L69.09 0.5Q68 0.5 67.25-0.23 66.5-0.95 66.5-2.2L66.5-2.2 66.5-20.05Q66.5-21.4 66.17-22 65.84-22.6 65.09-22.6L65.09-22.6Q64.15-22.6 63.8-21.9L63.8-21.9Q63.2-22.75 63.2-23.55L63.2-23.55Q63.2-24.7 64.05-25.4 64.9-26.1 66.4-26.1L66.4-26.1Q68.4-26.1 69.47-24.68 70.55-23.25 70.5-20.5L70.5-20.5Q71.34-23.25 73.05-24.7 74.75-26.15 77.15-26.15L77.15-26.15ZM110.99-3.95Q111.54-3.15 111.54-2.25L111.54-2.25Q111.54-1.1 110.47-0.3 109.39 0.5 107.84 0.5L107.84 0.5Q105.54 0.5 104.39-1.1 103.24-2.7 103.24-6.1L103.24-6.1 103.24-6.9Q101.69-3.5 98.94-1.48 96.19 0.55 92.79 0.55L92.79 0.55Q89.89 0.55 88.19-1.03 86.49-2.6 86.49-5.25L86.49-5.25Q86.49-8.25 88.79-10.33 91.09-12.4 94.84-13.45L94.84-13.45Q98.84-14.5 102.99-14.35L102.99-14.35 102.99-15.6Q102.99-20.05 101.62-22.15 100.24-24.25 97.04-24.25L97.04-24.25Q94.99-24.25 93.59-23.3 92.19-22.35 92.19-20.25L92.19-20.25Q92.19-19.15 92.72-18.13 93.24-17.1 94.29-16.7L94.29-16.7Q93.39-15.65 91.64-15.65L91.64-15.65Q89.84-15.65 88.74-16.98 87.64-18.3 87.64-20.1L87.64-20.1Q87.64-23 90.27-24.58 92.89-26.15 97.44-26.15L97.44-26.15Q102.69-26.15 105.17-23.55 107.64-20.95 107.64-15.35L107.64-15.35 107.64-5.65Q107.64-3 109.39-3L109.39-3Q109.79-3 110.24-3.25 110.69-3.5 110.99-3.95L110.99-3.95ZM94.74-2.55Q96.59-2.55 98.54-3.98 100.49-5.4 101.79-7.73 103.09-10.05 103.14-12.65L103.14-12.65Q101.29-12.75 99.24-12.48 97.19-12.2 95.79-11.6L95.79-11.6Q93.69-10.8 92.57-9.45 91.44-8.1 91.44-6.25L91.44-6.25Q91.44-4.65 92.24-3.6 93.04-2.55 94.74-2.55L94.74-2.55ZM135.99-23.45L136.04-2.5Q136.04 11.55 124.04 11.55L124.04 11.55Q120.29 11.55 117.79 10.28 115.29 9 115.29 6.2L115.29 6.2Q115.29 4.75 116.22 3.78 117.14 2.8 118.64 2.8L118.64 2.8Q120.14 2.8 120.74 3.65L120.74 3.65Q120.09 4.1 119.79 4.78 119.49 5.45 119.49 6.05L119.49 6.05Q119.49 7.9 120.82 8.85 122.14 9.8 124.04 9.8L124.04 9.8Q131.79 9.8 131.79-2.25L131.79-2.25Q131.79-3.25 131.99-5.95L131.99-5.95Q130.94-2.9 128.77-1.25 126.59 0.4 123.39 0.4L123.39 0.4Q119.54 0.4 117.67-2 115.79-4.4 115.79-10L115.79-10 115.79-19.55Q115.79-23.05 115.09-25.1L115.09-25.1Q116.34-26.15 117.69-26.15L117.69-26.15Q118.84-26.15 119.57-25.48 120.29-24.8 120.29-23.65L120.29-23.65 120.29-10.6Q120.29-6.1 121.29-4.05 122.29-2 124.69-2L124.69-2Q127.64-2 129.59-4.93 131.54-7.85 131.54-13.8L131.54-13.8Q131.54-19.9 131.44-21.8 131.34-23.7 130.79-25.15L130.79-25.15Q131.94-26.15 133.39-26.15L133.39-26.15Q134.49-26.15 135.24-25.43 135.99-24.7 135.99-23.45L135.99-23.45ZM166.09-3.95Q166.64-3.15 166.64-2.25L166.64-2.25Q166.64-1.1 165.56-0.3 164.49 0.5 162.94 0.5L162.94 0.5Q160.64 0.5 159.49-1.1 158.34-2.7 158.34-6.1L158.34-6.1 158.34-6.9Q156.79-3.5 154.04-1.48 151.29 0.55 147.89 0.55L147.89 0.55Q144.99 0.55 143.29-1.03 141.59-2.6 141.59-5.25L141.59-5.25Q141.59-8.25 143.89-10.33 146.19-12.4 149.94-13.45L149.94-13.45Q153.94-14.5 158.09-14.35L158.09-14.35 158.09-15.6Q158.09-20.05 156.71-22.15 155.34-24.25 152.14-24.25L152.14-24.25Q150.09-24.25 148.69-23.3 147.29-22.35 147.29-20.25L147.29-20.25Q147.29-19.15 147.81-18.13 148.34-17.1 149.39-16.7L149.39-16.7Q148.49-15.65 146.74-15.65L146.74-15.65Q144.94-15.65 143.84-16.98 142.74-18.3 142.74-20.1L142.74-20.1Q142.74-23 145.36-24.58 147.99-26.15 152.54-26.15L152.54-26.15Q157.79-26.15 160.26-23.55 162.74-20.95 162.74-15.35L162.74-15.35 162.74-5.65Q162.74-3 164.49-3L164.49-3Q164.89-3 165.34-3.25 165.79-3.5 166.09-3.95L166.09-3.95ZM149.84-2.55Q151.69-2.55 153.64-3.98 155.59-5.4 156.89-7.73 158.19-10.05 158.24-12.65L158.24-12.65Q156.39-12.75 154.34-12.48 152.29-12.2 150.89-11.6L150.89-11.6Q148.79-10.8 147.66-9.45 146.54-8.1 146.54-6.25L146.54-6.25Q146.54-4.65 147.34-3.6 148.14-2.55 149.84-2.55L149.84-2.55ZM192.19-6Q192.29-2.15 192.94-0.45L192.94-0.45Q191.79 0.6 190.34 0.6L190.34 0.6Q189.19 0.6 188.44-0.08 187.69-0.75 187.69-1.9L187.69-1.9 187.69-15.2Q187.64-19.5 186.54-21.55 185.44-23.6 182.78-23.6L182.78-23.6Q181.09-23.6 179.56-22.38 178.03-21.15 177.06-18.55 176.09-15.95 176.09-12L176.09-12Q176.09-5.75 176.19-3.8 176.28-1.85 176.84-0.4L176.84-0.4Q176.44 0 175.76 0.3 175.09 0.6 174.24 0.6L174.24 0.6Q173.03 0.6 172.31-0.13 171.59-0.85 171.59-2.1L171.59-2.1 171.59-20.05Q171.53-21.45 171.21-22.03 170.89-22.6 170.19-22.6L170.19-22.6Q169.24-22.6 168.89-21.9L168.89-21.9Q168.28-22.75 168.28-23.55L168.28-23.55Q168.28-24.7 169.14-25.4 169.99-26.1 171.49-26.1L171.49-26.1Q173.49-26.1 174.56-24.73 175.64-23.35 175.64-20.7L175.64-20.7 175.64-20.1Q176.69-23 178.89-24.58 181.09-26.15 184.14-26.15L184.14-26.15Q192.19-26.15 192.19-15.8L192.19-15.8 192.19-6ZM231.33-6Q231.33-2.5 232.03-0.45L232.03-0.45Q230.88 0.6 229.48 0.6L229.48 0.6Q228.33 0.6 227.61-0.08 226.88-0.75 226.88-1.9L226.88-1.9 226.83-15.2Q226.83-19.55 225.73-21.65 224.63-23.75 221.93-23.75L221.93-23.75Q220.23-23.75 218.71-22.53 217.18-21.3 216.21-18.65 215.23-16 215.23-12L215.23-12Q215.23-5.75 215.36-3.8 215.48-1.85 216.03-0.4L216.03-0.4Q214.93 0.6 213.43 0.6L213.43 0.6Q212.28 0.6 211.53-0.13 210.78-0.85 210.78-2.1L210.78-2.1 210.78-34.05Q210.73-35.25 211.43-35.88 212.13-36.5 213.23-36.5L213.23-36.5Q214.08-36.5 214.86-36.18 215.63-35.85 216.03-35.5L216.03-35.5Q215.58-34.1 215.43-32.18 215.28-30.25 215.23-26.9L215.23-26.9 215.18-20.5Q216.28-23.2 218.38-24.68 220.48-26.15 223.33-26.15L223.33-26.15Q231.33-26.15 231.33-15.8L231.33-15.8 231.33-6ZM257.63-6.6Q258.38-6.3 258.38-5.45L258.38-5.45Q258.38-4.9 258.03-4.05L258.03-4.05Q257.13-1.75 254.73-0.55 252.33 0.65 249.03 0.65L249.03 0.65Q243.48 0.65 240.3-2.8 237.13-6.25 237.13-12.65L237.13-12.65Q237.13-18.95 240.28-22.55 243.43-26.15 249.23-26.15L249.23-26.15Q253.43-26.15 256-24.25 258.58-22.35 258.58-18.85L258.58-18.85Q258.58-15.15 255.58-13.2 252.58-11.25 247.33-11.25L247.33-11.25Q244.68-11.25 242.03-11.55L242.03-11.55Q242.63-2.35 250.18-2.35L250.18-2.35Q252.88-2.35 254.85-3.48 256.83-4.6 257.63-6.6L257.63-6.6ZM249.03-24.25Q245.78-24.25 243.9-21.45 242.03-18.65 241.98-13.4L241.98-13.4Q243.03-13.3 245.33-13.2L245.33-13.2Q249.13-13.2 251.43-14.58 253.73-15.95 253.73-19.5L253.73-19.5Q253.73-22.1 252.38-23.18 251.03-24.25 249.03-24.25L249.03-24.25ZM287.38-3.95Q287.93-3.15 287.93-2.25L287.93-2.25Q287.93-1.1 286.85-0.3 285.78 0.5 284.23 0.5L284.23 0.5Q281.93 0.5 280.78-1.1 279.63-2.7 279.63-6.1L279.63-6.1 279.63-6.9Q278.08-3.5 275.33-1.48 272.58 0.55 269.18 0.55L269.18 0.55Q266.28 0.55 264.58-1.03 262.88-2.6 262.88-5.25L262.88-5.25Q262.88-8.25 265.18-10.33 267.48-12.4 271.23-13.45L271.23-13.45Q275.23-14.5 279.38-14.35L279.38-14.35 279.38-15.6Q279.38-20.05 278-22.15 276.63-24.25 273.43-24.25L273.43-24.25Q271.38-24.25 269.98-23.3 268.58-22.35 268.58-20.25L268.58-20.25Q268.58-19.15 269.1-18.13 269.63-17.1 270.68-16.7L270.68-16.7Q269.78-15.65 268.03-15.65L268.03-15.65Q266.23-15.65 265.13-16.98 264.03-18.3 264.03-20.1L264.03-20.1Q264.03-23 266.65-24.58 269.28-26.15 273.83-26.15L273.83-26.15Q279.08-26.15 281.55-23.55 284.03-20.95 284.03-15.35L284.03-15.35 284.03-5.65Q284.03-3 285.78-3L285.78-3Q286.18-3 286.63-3.25 287.08-3.5 287.38-3.95L287.38-3.95ZM271.13-2.55Q272.98-2.55 274.93-3.98 276.88-5.4 278.18-7.73 279.48-10.05 279.53-12.65L279.53-12.65Q277.68-12.75 275.63-12.48 273.58-12.2 272.18-11.6L272.18-11.6Q270.08-10.8 268.95-9.45 267.83-8.1 267.83-6.25L267.83-6.25Q267.83-4.65 268.63-3.6 269.43-2.55 271.13-2.55L271.13-2.55ZM297.22 0.5Q294.87 0.5 293.55-1.05 292.22-2.6 292.22-5.35L292.22-5.35 292.22-34.05Q292.22-35.25 292.95-35.9 293.67-36.55 294.87-36.55L294.87-36.55Q296.42-36.55 297.47-35.5L297.47-35.5Q297.02-34.05 296.9-32 296.77-29.95 296.77-25.75L296.77-25.75 296.72-5.65Q296.72-3 298.62-3L298.62-3Q299.17-3 299.67-3.25 300.17-3.5 300.37-3.95L300.37-3.95Q300.97-3.15 300.97-2.25L300.97-2.25Q300.97-1.05 299.87-0.28 298.77 0.5 297.22 0.5L297.22 0.5ZM312.87-25.45Q313.72-25.45 315.17-25.5 316.62-25.55 317.47-25.6L317.47-25.6 317.42-24.4Q317.37-23.8 317.02-23.48 316.67-23.15 316.17-23.15L316.17-23.15 311.22-23.15 311.22-21.35 311.17-5.65Q311.17-2.95 313.57-2.95L313.57-2.95Q314.27-2.95 314.94-3.2 315.62-3.45 315.82-3.9L315.82-3.9Q316.42-3.1 316.42-2.2L316.42-2.2Q316.42-0.95 315.17-0.2 313.92 0.55 311.92 0.55L311.92 0.55Q309.47 0.55 308.07-1 306.67-2.55 306.67-5.3L306.67-5.3 306.67-23.15 305.92-23.15Q303.92-23.15 302.92-23L302.92-23 302.97-24.25Q303.02-24.85 303.37-25.15 303.72-25.45 304.27-25.45L304.27-25.45 306.67-25.45 306.67-29.65Q306.67-30.8 307.39-31.45 308.12-32.1 309.32-32.1L309.32-32.1Q310.72-32.1 311.87-31.1L311.87-31.1Q311.32-29.2 311.27-25.45L311.27-25.45 312.87-25.45ZM343.67-6Q343.67-2.5 344.37-0.45L344.37-0.45Q343.22 0.6 341.82 0.6L341.82 0.6Q340.67 0.6 339.94-0.08 339.22-0.75 339.22-1.9L339.22-1.9 339.17-15.2Q339.17-19.55 338.07-21.65 336.97-23.75 334.27-23.75L334.27-23.75Q332.57-23.75 331.04-22.53 329.52-21.3 328.54-18.65 327.57-16 327.57-12L327.57-12Q327.57-5.75 327.69-3.8 327.82-1.85 328.37-0.4L328.37-0.4Q327.27 0.6 325.77 0.6L325.77 0.6Q324.62 0.6 323.87-0.13 323.12-0.85 323.12-2.1L323.12-2.1 323.12-34.05Q323.07-35.25 323.77-35.88 324.47-36.5 325.57-36.5L325.57-36.5Q326.42-36.5 327.19-36.18 327.97-35.85 328.37-35.5L328.37-35.5Q327.92-34.1 327.77-32.18 327.62-30.25 327.57-26.9L327.57-26.9 327.52-20.5Q328.62-23.2 330.72-24.68 332.82-26.15 335.67-26.15L335.67-26.15Q343.67-26.15 343.67-15.8L343.67-15.8 343.67-6ZM372.16 0.65Q366.56 0.65 363.46-2.78 360.36-6.2 360.36-12.65L360.36-12.65Q360.36-18.95 363.54-22.55 366.71-26.15 372.51-26.15L372.51-26.15Q376.61-26.15 378.89-24.38 381.16-22.6 381.16-19.8L381.16-19.8Q381.16-18 380.16-16.9 379.16-15.8 377.56-15.8L377.56-15.8Q375.86-15.8 375.01-16.85L375.01-16.85Q376.61-17.6 376.61-20.15L376.61-20.15Q376.61-22.25 375.36-23.25 374.11-24.25 372.06-24.25L372.06-24.25Q368.96-24.25 367.09-21.43 365.21-18.6 365.21-13.35L365.21-13.35Q365.21-7.65 367.44-5 369.66-2.35 373.41-2.35L373.41-2.35Q376.16-2.35 378.11-3.7 380.06-5.05 380.66-7.5L380.66-7.5Q381.41-7.15 381.41-6.1L381.41-6.1Q381.41-5.55 381.21-4.8L381.21-4.8Q380.41-2.2 378.01-0.78 375.61 0.65 372.16 0.65L372.16 0.65ZM410.26-3.95Q410.81-3.15 410.81-2.25L410.81-2.25Q410.81-1.1 409.74-0.3 408.66 0.5 407.11 0.5L407.11 0.5Q404.81 0.5 403.66-1.1 402.51-2.7 402.51-6.1L402.51-6.1 402.51-6.9Q400.96-3.5 398.21-1.48 395.46 0.55 392.06 0.55L392.06 0.55Q389.16 0.55 387.46-1.03 385.76-2.6 385.76-5.25L385.76-5.25Q385.76-8.25 388.06-10.33 390.36-12.4 394.11-13.45L394.11-13.45Q398.11-14.5 402.26-14.35L402.26-14.35 402.26-15.6Q402.26-20.05 400.88-22.15 399.51-24.25 396.31-24.25L396.31-24.25Q394.26-24.25 392.86-23.3 391.46-22.35 391.46-20.25L391.46-20.25Q391.46-19.15 391.99-18.13 392.51-17.1 393.56-16.7L393.56-16.7Q392.66-15.65 390.91-15.65L390.91-15.65Q389.11-15.65 388.01-16.98 386.91-18.3 386.91-20.1L386.91-20.1Q386.91-23 389.54-24.58 392.16-26.15 396.71-26.15L396.71-26.15Q401.96-26.15 404.44-23.55 406.91-20.95 406.91-15.35L406.91-15.35 406.91-5.65Q406.91-3 408.66-3L408.66-3Q409.06-3 409.51-3.25 409.96-3.5 410.26-3.95L410.26-3.95ZM394.01-2.55Q395.86-2.55 397.81-3.98 399.76-5.4 401.06-7.73 402.36-10.05 402.41-12.65L402.41-12.65Q400.56-12.75 398.51-12.48 396.46-12.2 395.06-11.6L395.06-11.6Q392.96-10.8 391.84-9.45 390.71-8.1 390.71-6.25L390.71-6.25Q390.71-4.65 391.51-3.6 392.31-2.55 394.01-2.55L394.01-2.55ZM426.41-26.15Q429.01-26.15 430.63-24.73 432.26-23.3 432.26-20.85L432.26-20.85Q432.26-19.1 431.26-18 430.26-16.9 428.86-16.9L428.86-16.9Q427.61-16.9 427.06-17.55L427.06-17.55Q427.61-18.4 427.81-19.1 428.01-19.8 428.01-20.75L428.01-20.75Q428.01-23.75 425.26-23.75L425.26-23.75Q423.11-23.75 421.68-20.85 420.26-17.95 420.26-12L420.26-12Q420.26-5.85 420.36-3.93 420.46-2 421.01-0.55L421.01-0.55Q420.61-0.15 419.93 0.15 419.26 0.45 418.36 0.5L418.36 0.5Q417.26 0.5 416.51-0.23 415.76-0.95 415.76-2.2L415.76-2.2 415.76-20.05Q415.76-21.4 415.43-22 415.11-22.6 414.36-22.6L414.36-22.6Q413.41-22.6 413.06-21.9L413.06-21.9Q412.46-22.75 412.46-23.55L412.46-23.55Q412.46-24.7 413.31-25.4 414.16-26.1 415.66-26.1L415.66-26.1Q417.66-26.1 418.73-24.68 419.81-23.25 419.76-20.5L419.76-20.5Q420.61-23.25 422.31-24.7 424.01-26.15 426.41-26.15L426.41-26.15ZM456.21-6.6Q456.96-6.3 456.96-5.45L456.96-5.45Q456.96-4.9 456.61-4.05L456.61-4.05Q455.71-1.75 453.31-0.55 450.91 0.65 447.61 0.65L447.61 0.65Q442.06 0.65 438.88-2.8 435.71-6.25 435.71-12.65L435.71-12.65Q435.71-18.95 438.86-22.55 442-26.15 447.81-26.15L447.81-26.15Q452-26.15 454.58-24.25 457.16-22.35 457.16-18.85L457.16-18.85Q457.16-15.15 454.16-13.2 451.16-11.25 445.91-11.25L445.91-11.25Q443.25-11.25 440.61-11.55L440.61-11.55Q441.21-2.35 448.75-2.35L448.75-2.35Q451.46-2.35 453.43-3.48 455.41-4.6 456.21-6.6L456.21-6.6ZM447.61-24.25Q444.36-24.25 442.48-21.45 440.61-18.65 440.56-13.4L440.56-13.4Q441.61-13.3 443.91-13.2L443.91-13.2Q447.71-13.2 450-14.58 452.31-15.95 452.31-19.5L452.31-19.5Q452.31-22.1 450.96-23.18 449.61-24.25 447.61-24.25L447.61-24.25Z" opacity="1" transform="matrix(1,0,0,1,0,0)" fill="#f9d264" class="wordmark-text-0" data-fill-palette-color="primary" id="text-0"></path></svg></g></svg></g><g transform="matrix(1,0,0,1,53.6573119968815,51.89394835024165)"><svg viewBox="0 0 288.205376006237 30.64745395564383" height="30.64745395564383" width="288.205376006237"><g transform="matrix(1,0,0,1,0,0)"><svg width="288.205376006237" viewBox="1.56 -30.76 377.4 40.14" height="30.64745395564383" data-palette-color="url(#b0ddc4c0-46c7-4eba-89f3-1a25f6c97739)"></svg></g></svg></g></svg></g></svg></g><g transform="matrix(1,0,0,1,155.39780878483043,0)"><svg viewBox="0 0 84.72438243033913 58.1768311732342" height="58.1768311732342" width="84.72438243033913"><g><svg xmlns="http://www.w3.org/2000/svg" xmlns:xlink="http://www.w3.org/1999/xlink" version="1.1" x="8" y="0" viewBox="21.73099999999999 26.067000000000007 56.54299999999999 47.86499999999998" enable-background="new 0 0 100 100" xml:space="preserve" height="58.1768311732342" width="68.72438243033913" class="icon-icon-0" data-fill-palette-color="accent" id="icon-0"><path d="M70.252 51.597c2.928-4.099 4.62-8.977 4.829-14.102 0.02-0.46-0.155-0.907-0.481-1.232-0.326-0.326-0.754-0.501-1.233-0.48-2.619 0.109-5.17 0.608-7.588 1.453-0.144-2.58-0.665-5.117-1.563-7.571-0.158-0.433-0.49-0.779-0.915-0.956-0.427-0.176-0.906-0.167-1.323 0.026-2.346 1.085-4.496 2.506-6.423 4.233-1.11-2.3-2.56-4.449-4.329-6.37-0.156-0.17-0.349-0.297-0.558-0.382-0.212-0.096-0.443-0.149-0.68-0.149 0 0 0 0 0 0-0.46 0-0.899 0.192-1.211 0.531-1.77 1.92-3.218 4.068-4.328 6.368-1.927-1.727-4.077-3.146-6.421-4.231-0.417-0.193-0.897-0.203-1.322-0.026-0.425 0.176-0.757 0.522-0.916 0.955-0.899 2.453-1.423 4.991-1.566 7.572-2.418-0.845-4.97-1.344-7.588-1.453-0.465-0.024-0.907 0.154-1.233 0.48-0.326 0.325-0.5 0.772-0.482 1.232 0.209 5.125 1.902 10.002 4.83 14.102-5.188 2.405-8.02 5.643-8.02 9.249 0 1.966 0.844 3.832 2.508 5.547 0.417 0.429 1.035 0.596 1.613 0.442 3.21-0.871 5.715-0.646 7.01 0.648 0.688 0.688 1.076 1.728 1.152 3.09 0.039 0.706 0.525 1.309 1.208 1.496 4.427 1.219 9.539 1.863 14.781 1.863 15.853 0 28.271-5.749 28.271-13.087C78.271 57.238 75.44 54.002 70.252 51.597zM66.443 51.143c-0.023 0.023-0.053 0.038-0.075 0.064-0.094 0.109-0.202 0.232-0.305 0.35-0.3 0.338-0.597 0.677-0.918 0.998-0.459 0.459-0.94 0.89-1.432 1.305-0.149 0.126-0.303 0.244-0.455 0.365-0.36 0.288-0.728 0.566-1.104 0.831-0.169 0.119-0.339 0.238-0.511 0.353-0.416 0.277-0.842 0.538-1.274 0.786-0.123 0.071-0.243 0.147-0.367 0.216-0.56 0.308-1.131 0.59-1.714 0.849-0.128 0.057-0.26 0.104-0.389 0.159-0.462 0.194-0.93 0.375-1.404 0.539-0.191 0.066-0.385 0.128-0.578 0.188-0.441 0.14-0.889 0.265-1.34 0.377-0.183 0.046-0.364 0.096-0.549 0.137-0.086 0.02-0.174 0.029-0.259 0.048 0.021-0.031 0.038-0.064 0.059-0.095 0.019-0.029 0.038-0.058 0.057-0.087 0.002-0.002 0.004-0.004 0.006-0.006 0.005-0.008 0.01-0.015 0.015-0.022 0.007-0.009 0.013-0.019 0.02-0.027l0.026-0.041c0.019-0.027 0.043-0.064 0.045-0.067l0.008-0.012c0.005-0.007 0.007-0.015 0.011-0.021 0.221-0.343 0.433-0.689 0.636-1.042 0.003-0.005 0.006-0.011 0.01-0.016 0.142-0.246 0.277-0.495 0.411-0.746 0.002-0.003 0.005-0.005 0.007-0.008 0.002-0.002 0.003-0.005 0.004-0.007l0.067-0.124h-0.001l0.006-0.009c0.003-0.006 0.003-0.012 0.006-0.018 0.315-0.602 0.607-1.214 0.874-1.837 0.002-0.003 0.004-0.004 0.005-0.007 0.001-0.002 0.001-0.003 0.002-0.005l0.031-0.072c0.001-0.004 0.003-0.008 0.005-0.013l0.045-0.104c0.003-0.006 0.002-0.013 0.004-0.019 0.266-0.636 0.508-1.28 0.722-1.935l0.065-0.197-0.003-0.001c0.123-0.387 0.237-0.775 0.342-1.168 0.001-0.003 0.002-0.006 0.002-0.009 0.092-0.342 0.177-0.685 0.254-1.031h0.001c0.001-0.003 0-0.005 0.001-0.008 0.169-0.758 0.306-1.523 0.406-2.297 0.001-0.005 0.001-0.011 0.002-0.017 0.069-0.534 0.12-1.071 0.157-1.611 0.001-0.026 0.006-0.051 0.007-0.078 0.069-0.077 0.136-0.155 0.21-0.229 0.467-0.467 0.954-0.912 1.46-1.335 0.03-0.025 0.063-0.047 0.094-0.073 1.507-1.246 3.179-2.3 4.996-3.138 0.01-0.004 0.017-0.012 0.026-0.017 2.129-0.979 4.405-1.643 6.769-1.933C71.099 43.635 69.298 47.763 66.443 51.143zM54.76 45.969c-0.012 0.153-0.024 0.306-0.039 0.458-0.045 0.48-0.104 0.958-0.18 1.432-0.027 0.166-0.058 0.33-0.088 0.495-0.083 0.456-0.177 0.91-0.287 1.359-0.045 0.183-0.097 0.363-0.146 0.544-0.116 0.429-0.24 0.855-0.382 1.276-0.066 0.194-0.141 0.387-0.212 0.579-0.148 0.404-0.301 0.807-0.472 1.202-0.085 0.196-0.182 0.389-0.272 0.583-0.18 0.385-0.361 0.77-0.562 1.145-0.102 0.189-0.217 0.372-0.324 0.559-0.213 0.371-0.424 0.742-0.658 1.102-0.118 0.182-0.251 0.354-0.374 0.531-0.243 0.351-0.482 0.703-0.746 1.042-0.003 0.004-0.007 0.008-0.01 0.012-0.036-0.047-0.077-0.09-0.113-0.137-0.143-0.187-0.271-0.38-0.408-0.57-0.248-0.345-0.495-0.689-0.723-1.046-0.11-0.173-0.21-0.353-0.315-0.528-0.232-0.386-0.46-0.773-0.669-1.172-0.087-0.166-0.165-0.336-0.248-0.504-0.204-0.415-0.402-0.833-0.581-1.259-0.072-0.172-0.136-0.347-0.204-0.521-0.167-0.426-0.325-0.854-0.465-1.29-0.062-0.189-0.116-0.382-0.172-0.574-0.124-0.42-0.238-0.844-0.338-1.272-0.05-0.216-0.094-0.433-0.138-0.65-0.082-0.409-0.155-0.819-0.215-1.233-0.034-0.237-0.063-0.476-0.09-0.714-0.045-0.404-0.081-0.81-0.104-1.216-0.005-0.095-0.007-0.191-0.012-0.287 0-0.005 0.001-0.01 0.001-0.015 0-0.013-0.003-0.025-0.004-0.039-0.014-0.325-0.041-0.648-0.041-0.975 0-0.656 0.03-1.309 0.086-1.958 0.018-0.202 0.053-0.4 0.076-0.601 0.051-0.449 0.102-0.897 0.179-1.341 0.037-0.213 0.091-0.422 0.134-0.633 0.088-0.432 0.177-0.864 0.291-1.291 0.052-0.196 0.118-0.389 0.175-0.583 0.129-0.438 0.263-0.874 0.418-1.305 0.813-2.252 1.975-4.38 3.471-6.298 3.127 4.008 4.83 8.915 4.83 14.01C54.83 44.851 54.801 45.411 54.76 45.969zM56.873 36.247c1.451-1.443 3.065-2.67 4.821-3.666 0.547 1.973 0.824 3.997 0.831 6.045-1.572 0.803-3.062 1.767-4.449 2.881-0.024 0.02-0.051 0.038-0.075 0.057-0.012-0.109-0.03-0.217-0.043-0.326-0.033-0.288-0.069-0.576-0.112-0.862-0.022-0.147-0.048-0.294-0.073-0.442-0.049-0.288-0.101-0.576-0.159-0.862-0.027-0.135-0.057-0.271-0.087-0.406-0.067-0.306-0.141-0.61-0.219-0.914-0.028-0.111-0.058-0.223-0.088-0.335-0.093-0.339-0.193-0.676-0.299-1.011C56.903 36.354 56.891 36.3 56.873 36.247zM38.307 32.581c1.755 0.996 3.369 2.224 4.822 3.667-0.558 1.722-0.937 3.502-1.126 5.319-0.022-0.019-0.046-0.035-0.069-0.053-1.39-1.118-2.884-2.084-4.459-2.889C37.48 36.576 37.76 34.553 38.307 32.581zM35.131 41.161c0.009 0.004 0.017 0.012 0.026 0.017 1.812 0.834 3.478 1.885 4.982 3.127 0.036 0.029 0.074 0.055 0.11 0.085 0.506 0.423 0.993 0.868 1.459 1.334 0.074 0.075 0.142 0.153 0.21 0.231 0.294 4.575 1.784 8.959 4.315 12.754-0.082-0.018-0.166-0.027-0.248-0.046-0.197-0.044-0.391-0.096-0.586-0.146-0.437-0.109-0.87-0.229-1.298-0.364-0.204-0.064-0.407-0.129-0.609-0.199-0.463-0.16-0.92-0.337-1.372-0.527-0.137-0.058-0.278-0.107-0.414-0.168-0.58-0.258-1.149-0.539-1.706-0.845-0.129-0.071-0.253-0.151-0.381-0.225-0.429-0.246-0.851-0.505-1.263-0.779-0.173-0.114-0.343-0.233-0.513-0.354-0.376-0.266-0.744-0.544-1.104-0.832-0.151-0.121-0.305-0.239-0.453-0.364-0.493-0.415-0.974-0.846-1.434-1.306-0.321-0.32-0.618-0.659-0.917-0.996-0.103-0.118-0.209-0.237-0.308-0.354-0.021-0.024-0.05-0.039-0.072-0.062-2.854-3.379-4.654-7.507-5.194-11.916C30.726 39.518 33.002 40.182 35.131 41.161zM50 70.638c-4.53 0-8.941-0.505-12.834-1.465-0.281-1.638-0.943-2.985-1.977-4.02-2.013-2.013-5.185-2.623-9.187-1.746-0.65-0.854-0.979-1.712-0.979-2.562 0-2.333 2.552-4.762 6.885-6.607 0.203 0.217 0.405 0.435 0.616 0.646 4.354 4.355 10.062 7.002 16.182 7.53 0.408 0.035 0.817 0.061 1.229 0.077 0.021 0.001 0.042 0.002 0.062 0.002 0 0 0 0 0.001 0h0.022c0.003 0 0.006-0.001 0.009-0.001 0.012 0 0.024 0 0.036-0.001 6.583-0.26 12.766-2.962 17.411-7.607 0.211-0.211 0.413-0.429 0.616-0.646 4.334 1.846 6.885 4.274 6.885 6.607C74.977 65.478 64.719 70.638 50 70.638z" fill="#f9d264" data-fill-palette-color="accent"></path></svg></g></svg></g><g><rect width="155.39780878483043" height="3.786053460126634" y="53.39077771310757" x="240.12219121516955" fill="#f9d264" data-fill-palette-color="accent"></rect><rect width="155.39780878483043" height="3.786053460126634" y="53.39077771310757" x="0" fill="#f9d264" data-fill-palette-color="accent"></rect><rect width="155.39780878483043" height="3.786053460126634" y="45.8186707928543" x="240.12219121516955" fill="#f9d264" data-fill-palette-color="accent"></rect><rect width="155.39780878483043" height="3.786053460126634" y="45.8186707928543" x="0" fill="#f9d264" data-fill-palette-color="accent"></rect></g></svg></g><defs></defs><mask id="a07a56af-eb39-4390-8636-e05e311ef173"><g id="SvgjsG1038"><svg viewBox="0 0 395.52 150.62936819149306" height="150.62936819149306" width="395.52"><g><svg viewBox="0 0 395.52 150.62936819149306" height="150.62936819149306" width="395.52"><g transform="matrix(1,0,0,1,0,68.08796588560759)"><svg viewBox="0 0 395.52 82.54140230588547" height="82.54140230588547" width="395.52"><g id="SvgjsG1037"><svg viewBox="0 0 395.52 82.54140230588547" height="82.54140230588547" width="395.52" id="SvgjsSvg1036"><g><svg viewBox="0 0 395.52 41.98281363786826" height="41.98281363786826" width="395.52"><g transform="matrix(1,0,0,1,0,0)"><svg width="395.52" viewBox="4.05 -36.55 453.11 48.1" height="41.98281363786826" data-palette-color="#f9d264"><path d="M6 0.6Q4.9 0.6 4.05-0.1L4.05-0.1Q4.7-2 4.7-6L4.7-6 4.7-28.45Q4.7-32.45 4.35-34.55L4.35-34.55Q4.9-35.1 6.45-35.1L6.45-35.1Q7.5-35.1 7.75-34.85L7.75-34.85 11.35-29.7Q17.3-21.2 21.23-15.48 25.15-9.75 27.15-6.2L27.15-6.2 26.1-30.55Q26-32.3 26.43-33.48 26.85-34.65 27.8-35L27.8-35Q28-35.05 28.4-35.05L28.4-35.05Q29.15-35.05 29.8-34.75L29.8-34.75Q29.7-33.75 29.7-33L29.7-33 29.75-30.6 29.75-5.9Q29.75-4.15 29.8-2.63 29.85-1.1 30-0.1L30-0.1Q29.75 0.2 29.15 0.35 28.55 0.5 27.85 0.5L27.85 0.5Q27.2 0.5 26.8 0.35L26.8 0.35Q21.35-6.25 16.13-14 10.9-21.75 7.45-27.75L7.45-27.75 8.35-2.15Q8.4-0.95 7.68-0.18 6.95 0.6 6 0.6L6 0.6ZM61-3.95Q61.55-3.15 61.55-2.25L61.55-2.25Q61.55-1.1 60.47-0.3 59.4 0.5 57.85 0.5L57.85 0.5Q55.55 0.5 54.4-1.1 53.25-2.7 53.25-6.1L53.25-6.1 53.25-6.9Q51.7-3.5 48.95-1.48 46.2 0.55 42.8 0.55L42.8 0.55Q39.9 0.55 38.2-1.03 36.5-2.6 36.5-5.25L36.5-5.25Q36.5-8.25 38.8-10.33 41.1-12.4 44.85-13.45L44.85-13.45Q48.85-14.5 53-14.35L53-14.35 53-15.6Q53-20.05 51.62-22.15 50.25-24.25 47.05-24.25L47.05-24.25Q45-24.25 43.6-23.3 42.2-22.35 42.2-20.25L42.2-20.25Q42.2-19.15 42.72-18.13 43.25-17.1 44.3-16.7L44.3-16.7Q43.4-15.65 41.65-15.65L41.65-15.65Q39.85-15.65 38.75-16.98 37.65-18.3 37.65-20.1L37.65-20.1Q37.65-23 40.27-24.58 42.9-26.15 47.45-26.15L47.45-26.15Q52.7-26.15 55.17-23.55 57.65-20.95 57.65-15.35L57.65-15.35 57.65-5.65Q57.65-3 59.4-3L59.4-3Q59.8-3 60.25-3.25 60.7-3.5 61-3.95L61-3.95ZM44.75-2.55Q46.6-2.55 48.55-3.98 50.5-5.4 51.8-7.73 53.1-10.05 53.15-12.65L53.15-12.65Q51.3-12.75 49.25-12.48 47.2-12.2 45.8-11.6L45.8-11.6Q43.7-10.8 42.57-9.45 41.45-8.1 41.45-6.25L41.45-6.25Q41.45-4.65 42.25-3.6 43.05-2.55 44.75-2.55L44.75-2.55ZM77.15-26.15Q79.75-26.15 81.37-24.73 83-23.3 83-20.85L83-20.85Q83-19.1 82-18 81-16.9 79.59-16.9L79.59-16.9Q78.34-16.9 77.8-17.55L77.8-17.55Q78.34-18.4 78.55-19.1 78.75-19.8 78.75-20.75L78.75-20.75Q78.75-23.75 76-23.75L76-23.75Q73.84-23.75 72.42-20.85 71-17.95 71-12L71-12Q71-5.85 71.09-3.93 71.2-2 71.75-0.55L71.75-0.55Q71.34-0.15 70.67 0.15 70 0.45 69.09 0.5L69.09 0.5Q68 0.5 67.25-0.23 66.5-0.95 66.5-2.2L66.5-2.2 66.5-20.05Q66.5-21.4 66.17-22 65.84-22.6 65.09-22.6L65.09-22.6Q64.15-22.6 63.8-21.9L63.8-21.9Q63.2-22.75 63.2-23.55L63.2-23.55Q63.2-24.7 64.05-25.4 64.9-26.1 66.4-26.1L66.4-26.1Q68.4-26.1 69.47-24.68 70.55-23.25 70.5-20.5L70.5-20.5Q71.34-23.25 73.05-24.7 74.75-26.15 77.15-26.15L77.15-26.15ZM110.99-3.95Q111.54-3.15 111.54-2.25L111.54-2.25Q111.54-1.1 110.47-0.3 109.39 0.5 107.84 0.5L107.84 0.5Q105.54 0.5 104.39-1.1 103.24-2.7 103.24-6.1L103.24-6.1 103.24-6.9Q101.69-3.5 98.94-1.48 96.19 0.55 92.79 0.55L92.79 0.55Q89.89 0.55 88.19-1.03 86.49-2.6 86.49-5.25L86.49-5.25Q86.49-8.25 88.79-10.33 91.09-12.4 94.84-13.45L94.84-13.45Q98.84-14.5 102.99-14.35L102.99-14.35 102.99-15.6Q102.99-20.05 101.62-22.15 100.24-24.25 97.04-24.25L97.04-24.25Q94.99-24.25 93.59-23.3 92.19-22.35 92.19-20.25L92.19-20.25Q92.19-19.15 92.72-18.13 93.24-17.1 94.29-16.7L94.29-16.7Q93.39-15.65 91.64-15.65L91.64-15.65Q89.84-15.65 88.74-16.98 87.64-18.3 87.64-20.1L87.64-20.1Q87.64-23 90.27-24.58 92.89-26.15 97.44-26.15L97.44-26.15Q102.69-26.15 105.17-23.55 107.64-20.95 107.64-15.35L107.64-15.35 107.64-5.65Q107.64-3 109.39-3L109.39-3Q109.79-3 110.24-3.25 110.69-3.5 110.99-3.95L110.99-3.95ZM94.74-2.55Q96.59-2.55 98.54-3.98 100.49-5.4 101.79-7.73 103.09-10.05 103.14-12.65L103.14-12.65Q101.29-12.75 99.24-12.48 97.19-12.2 95.79-11.6L95.79-11.6Q93.69-10.8 92.57-9.45 91.44-8.1 91.44-6.25L91.44-6.25Q91.44-4.65 92.24-3.6 93.04-2.55 94.74-2.55L94.74-2.55ZM135.99-23.45L136.04-2.5Q136.04 11.55 124.04 11.55L124.04 11.55Q120.29 11.55 117.79 10.28 115.29 9 115.29 6.2L115.29 6.2Q115.29 4.75 116.22 3.78 117.14 2.8 118.64 2.8L118.64 2.8Q120.14 2.8 120.74 3.65L120.74 3.65Q120.09 4.1 119.79 4.78 119.49 5.45 119.49 6.05L119.49 6.05Q119.49 7.9 120.82 8.85 122.14 9.8 124.04 9.8L124.04 9.8Q131.79 9.8 131.79-2.25L131.79-2.25Q131.79-3.25 131.99-5.95L131.99-5.95Q130.94-2.9 128.77-1.25 126.59 0.4 123.39 0.4L123.39 0.4Q119.54 0.4 117.67-2 115.79-4.4 115.79-10L115.79-10 115.79-19.55Q115.79-23.05 115.09-25.1L115.09-25.1Q116.34-26.15 117.69-26.15L117.69-26.15Q118.84-26.15 119.57-25.48 120.29-24.8 120.29-23.65L120.29-23.65 120.29-10.6Q120.29-6.1 121.29-4.05 122.29-2 124.69-2L124.69-2Q127.64-2 129.59-4.93 131.54-7.85 131.54-13.8L131.54-13.8Q131.54-19.9 131.44-21.8 131.34-23.7 130.79-25.15L130.79-25.15Q131.94-26.15 133.39-26.15L133.39-26.15Q134.49-26.15 135.24-25.43 135.99-24.7 135.99-23.45L135.99-23.45ZM166.09-3.95Q166.64-3.15 166.64-2.25L166.64-2.25Q166.64-1.1 165.56-0.3 164.49 0.5 162.94 0.5L162.94 0.5Q160.64 0.5 159.49-1.1 158.34-2.7 158.34-6.1L158.34-6.1 158.34-6.9Q156.79-3.5 154.04-1.48 151.29 0.55 147.89 0.55L147.89 0.55Q144.99 0.55 143.29-1.03 141.59-2.6 141.59-5.25L141.59-5.25Q141.59-8.25 143.89-10.33 146.19-12.4 149.94-13.45L149.94-13.45Q153.94-14.5 158.09-14.35L158.09-14.35 158.09-15.6Q158.09-20.05 156.71-22.15 155.34-24.25 152.14-24.25L152.14-24.25Q150.09-24.25 148.69-23.3 147.29-22.35 147.29-20.25L147.29-20.25Q147.29-19.15 147.81-18.13 148.34-17.1 149.39-16.7L149.39-16.7Q148.49-15.65 146.74-15.65L146.74-15.65Q144.94-15.65 143.84-16.98 142.74-18.3 142.74-20.1L142.74-20.1Q142.74-23 145.36-24.58 147.99-26.15 152.54-26.15L152.54-26.15Q157.79-26.15 160.26-23.55 162.74-20.95 162.74-15.35L162.74-15.35 162.74-5.65Q162.74-3 164.49-3L164.49-3Q164.89-3 165.34-3.25 165.79-3.5 166.09-3.95L166.09-3.95ZM149.84-2.55Q151.69-2.55 153.64-3.98 155.59-5.4 156.89-7.73 158.19-10.05 158.24-12.65L158.24-12.65Q156.39-12.75 154.34-12.48 152.29-12.2 150.89-11.6L150.89-11.6Q148.79-10.8 147.66-9.45 146.54-8.1 146.54-6.25L146.54-6.25Q146.54-4.65 147.34-3.6 148.14-2.55 149.84-2.55L149.84-2.55ZM192.19-6Q192.29-2.15 192.94-0.45L192.94-0.45Q191.79 0.6 190.34 0.6L190.34 0.6Q189.19 0.6 188.44-0.08 187.69-0.75 187.69-1.9L187.69-1.9 187.69-15.2Q187.64-19.5 186.54-21.55 185.44-23.6 182.78-23.6L182.78-23.6Q181.09-23.6 179.56-22.38 178.03-21.15 177.06-18.55 176.09-15.95 176.09-12L176.09-12Q176.09-5.75 176.19-3.8 176.28-1.85 176.84-0.4L176.84-0.4Q176.44 0 175.76 0.3 175.09 0.6 174.24 0.6L174.24 0.6Q173.03 0.6 172.31-0.13 171.59-0.85 171.59-2.1L171.59-2.1 171.59-20.05Q171.53-21.45 171.21-22.03 170.89-22.6 170.19-22.6L170.19-22.6Q169.24-22.6 168.89-21.9L168.89-21.9Q168.28-22.75 168.28-23.55L168.28-23.55Q168.28-24.7 169.14-25.4 169.99-26.1 171.49-26.1L171.49-26.1Q173.49-26.1 174.56-24.73 175.64-23.35 175.64-20.7L175.64-20.7 175.64-20.1Q176.69-23 178.89-24.58 181.09-26.15 184.14-26.15L184.14-26.15Q192.19-26.15 192.19-15.8L192.19-15.8 192.19-6ZM231.33-6Q231.33-2.5 232.03-0.45L232.03-0.45Q230.88 0.6 229.48 0.6L229.48 0.6Q228.33 0.6 227.61-0.08 226.88-0.75 226.88-1.9L226.88-1.9 226.83-15.2Q226.83-19.55 225.73-21.65 224.63-23.75 221.93-23.75L221.93-23.75Q220.23-23.75 218.71-22.53 217.18-21.3 216.21-18.65 215.23-16 215.23-12L215.23-12Q215.23-5.75 215.36-3.8 215.48-1.85 216.03-0.4L216.03-0.4Q214.93 0.6 213.43 0.6L213.43 0.6Q212.28 0.6 211.53-0.13 210.78-0.85 210.78-2.1L210.78-2.1 210.78-34.05Q210.73-35.25 211.43-35.88 212.13-36.5 213.23-36.5L213.23-36.5Q214.08-36.5 214.86-36.18 215.63-35.85 216.03-35.5L216.03-35.5Q215.58-34.1 215.43-32.18 215.28-30.25 215.23-26.9L215.23-26.9 215.18-20.5Q216.28-23.2 218.38-24.68 220.48-26.15 223.33-26.15L223.33-26.15Q231.33-26.15 231.33-15.8L231.33-15.8 231.33-6ZM257.63-6.6Q258.38-6.3 258.38-5.45L258.38-5.45Q258.38-4.9 258.03-4.05L258.03-4.05Q257.13-1.75 254.73-0.55 252.33 0.65 249.03 0.65L249.03 0.65Q243.48 0.65 240.3-2.8 237.13-6.25 237.13-12.65L237.13-12.65Q237.13-18.95 240.28-22.55 243.43-26.15 249.23-26.15L249.23-26.15Q253.43-26.15 256-24.25 258.58-22.35 258.58-18.85L258.58-18.85Q258.58-15.15 255.58-13.2 252.58-11.25 247.33-11.25L247.33-11.25Q244.68-11.25 242.03-11.55L242.03-11.55Q242.63-2.35 250.18-2.35L250.18-2.35Q252.88-2.35 254.85-3.48 256.83-4.6 257.63-6.6L257.63-6.6ZM249.03-24.25Q245.78-24.25 243.9-21.45 242.03-18.65 241.98-13.4L241.98-13.4Q243.03-13.3 245.33-13.2L245.33-13.2Q249.13-13.2 251.43-14.58 253.73-15.95 253.73-19.5L253.73-19.5Q253.73-22.1 252.38-23.18 251.03-24.25 249.03-24.25L249.03-24.25ZM287.38-3.95Q287.93-3.15 287.93-2.25L287.93-2.25Q287.93-1.1 286.85-0.3 285.78 0.5 284.23 0.5L284.23 0.5Q281.93 0.5 280.78-1.1 279.63-2.7 279.63-6.1L279.63-6.1 279.63-6.9Q278.08-3.5 275.33-1.48 272.58 0.55 269.18 0.55L269.18 0.55Q266.28 0.55 264.58-1.03 262.88-2.6 262.88-5.25L262.88-5.25Q262.88-8.25 265.18-10.33 267.48-12.4 271.23-13.45L271.23-13.45Q275.23-14.5 279.38-14.35L279.38-14.35 279.38-15.6Q279.38-20.05 278-22.15 276.63-24.25 273.43-24.25L273.43-24.25Q271.38-24.25 269.98-23.3 268.58-22.35 268.58-20.25L268.58-20.25Q268.58-19.15 269.1-18.13 269.63-17.1 270.68-16.7L270.68-16.7Q269.78-15.65 268.03-15.65L268.03-15.65Q266.23-15.65 265.13-16.98 264.03-18.3 264.03-20.1L264.03-20.1Q264.03-23 266.65-24.58 269.28-26.15 273.83-26.15L273.83-26.15Q279.08-26.15 281.55-23.55 284.03-20.95 284.03-15.35L284.03-15.35 284.03-5.65Q284.03-3 285.78-3L285.78-3Q286.18-3 286.63-3.25 287.08-3.5 287.38-3.95L287.38-3.95ZM271.13-2.55Q272.98-2.55 274.93-3.98 276.88-5.4 278.18-7.73 279.48-10.05 279.53-12.65L279.53-12.65Q277.68-12.75 275.63-12.48 273.58-12.2 272.18-11.6L272.18-11.6Q270.08-10.8 268.95-9.45 267.83-8.1 267.83-6.25L267.83-6.25Q267.83-4.65 268.63-3.6 269.43-2.55 271.13-2.55L271.13-2.55ZM297.22 0.5Q294.87 0.5 293.55-1.05 292.22-2.6 292.22-5.35L292.22-5.35 292.22-34.05Q292.22-35.25 292.95-35.9 293.67-36.55 294.87-36.55L294.87-36.55Q296.42-36.55 297.47-35.5L297.47-35.5Q297.02-34.05 296.9-32 296.77-29.95 296.77-25.75L296.77-25.75 296.72-5.65Q296.72-3 298.62-3L298.62-3Q299.17-3 299.67-3.25 300.17-3.5 300.37-3.95L300.37-3.95Q300.97-3.15 300.97-2.25L300.97-2.25Q300.97-1.05 299.87-0.28 298.77 0.5 297.22 0.5L297.22 0.5ZM312.87-25.45Q313.72-25.45 315.17-25.5 316.62-25.55 317.47-25.6L317.47-25.6 317.42-24.4Q317.37-23.8 317.02-23.48 316.67-23.15 316.17-23.15L316.17-23.15 311.22-23.15 311.22-21.35 311.17-5.65Q311.17-2.95 313.57-2.95L313.57-2.95Q314.27-2.95 314.94-3.2 315.62-3.45 315.82-3.9L315.82-3.9Q316.42-3.1 316.42-2.2L316.42-2.2Q316.42-0.95 315.17-0.2 313.92 0.55 311.92 0.55L311.92 0.55Q309.47 0.55 308.07-1 306.67-2.55 306.67-5.3L306.67-5.3 306.67-23.15 305.92-23.15Q303.92-23.15 302.92-23L302.92-23 302.97-24.25Q303.02-24.85 303.37-25.15 303.72-25.45 304.27-25.45L304.27-25.45 306.67-25.45 306.67-29.65Q306.67-30.8 307.39-31.45 308.12-32.1 309.32-32.1L309.32-32.1Q310.72-32.1 311.87-31.1L311.87-31.1Q311.32-29.2 311.27-25.45L311.27-25.45 312.87-25.45ZM343.67-6Q343.67-2.5 344.37-0.45L344.37-0.45Q343.22 0.6 341.82 0.6L341.82 0.6Q340.67 0.6 339.94-0.08 339.22-0.75 339.22-1.9L339.22-1.9 339.17-15.2Q339.17-19.55 338.07-21.65 336.97-23.75 334.27-23.75L334.27-23.75Q332.57-23.75 331.04-22.53 329.52-21.3 328.54-18.65 327.57-16 327.57-12L327.57-12Q327.57-5.75 327.69-3.8 327.82-1.85 328.37-0.4L328.37-0.4Q327.27 0.6 325.77 0.6L325.77 0.6Q324.62 0.6 323.87-0.13 323.12-0.85 323.12-2.1L323.12-2.1 323.12-34.05Q323.07-35.25 323.77-35.88 324.47-36.5 325.57-36.5L325.57-36.5Q326.42-36.5 327.19-36.18 327.97-35.85 328.37-35.5L328.37-35.5Q327.92-34.1 327.77-32.18 327.62-30.25 327.57-26.9L327.57-26.9 327.52-20.5Q328.62-23.2 330.72-24.68 332.82-26.15 335.67-26.15L335.67-26.15Q343.67-26.15 343.67-15.8L343.67-15.8 343.67-6ZM372.16 0.65Q366.56 0.65 363.46-2.78 360.36-6.2 360.36-12.65L360.36-12.65Q360.36-18.95 363.54-22.55 366.71-26.15 372.51-26.15L372.51-26.15Q376.61-26.15 378.89-24.38 381.16-22.6 381.16-19.8L381.16-19.8Q381.16-18 380.16-16.9 379.16-15.8 377.56-15.8L377.56-15.8Q375.86-15.8 375.01-16.85L375.01-16.85Q376.61-17.6 376.61-20.15L376.61-20.15Q376.61-22.25 375.36-23.25 374.11-24.25 372.06-24.25L372.06-24.25Q368.96-24.25 367.09-21.43 365.21-18.6 365.21-13.35L365.21-13.35Q365.21-7.65 367.44-5 369.66-2.35 373.41-2.35L373.41-2.35Q376.16-2.35 378.11-3.7 380.06-5.05 380.66-7.5L380.66-7.5Q381.41-7.15 381.41-6.1L381.41-6.1Q381.41-5.55 381.21-4.8L381.21-4.8Q380.41-2.2 378.01-0.78 375.61 0.65 372.16 0.65L372.16 0.65ZM410.26-3.95Q410.81-3.15 410.81-2.25L410.81-2.25Q410.81-1.1 409.74-0.3 408.66 0.5 407.11 0.5L407.11 0.5Q404.81 0.5 403.66-1.1 402.51-2.7 402.51-6.1L402.51-6.1 402.51-6.9Q400.96-3.5 398.21-1.48 395.46 0.55 392.06 0.55L392.06 0.55Q389.16 0.55 387.46-1.03 385.76-2.6 385.76-5.25L385.76-5.25Q385.76-8.25 388.06-10.33 390.36-12.4 394.11-13.45L394.11-13.45Q398.11-14.5 402.26-14.35L402.26-14.35 402.26-15.6Q402.26-20.05 400.88-22.15 399.51-24.25 396.31-24.25L396.31-24.25Q394.26-24.25 392.86-23.3 391.46-22.35 391.46-20.25L391.46-20.25Q391.46-19.15 391.99-18.13 392.51-17.1 393.56-16.7L393.56-16.7Q392.66-15.65 390.91-15.65L390.91-15.65Q389.11-15.65 388.01-16.98 386.91-18.3 386.91-20.1L386.91-20.1Q386.91-23 389.54-24.58 392.16-26.15 396.71-26.15L396.71-26.15Q401.96-26.15 404.44-23.55 406.91-20.95 406.91-15.35L406.91-15.35 406.91-5.65Q406.91-3 408.66-3L408.66-3Q409.06-3 409.51-3.25 409.96-3.5 410.26-3.95L410.26-3.95ZM394.01-2.55Q395.86-2.55 397.81-3.98 399.76-5.4 401.06-7.73 402.36-10.05 402.41-12.65L402.41-12.65Q400.56-12.75 398.51-12.48 396.46-12.2 395.06-11.6L395.06-11.6Q392.96-10.8 391.84-9.45 390.71-8.1 390.71-6.25L390.71-6.25Q390.71-4.65 391.51-3.6 392.31-2.55 394.01-2.55L394.01-2.55ZM426.41-26.15Q429.01-26.15 430.63-24.73 432.26-23.3 432.26-20.85L432.26-20.85Q432.26-19.1 431.26-18 430.26-16.9 428.86-16.9L428.86-16.9Q427.61-16.9 427.06-17.55L427.06-17.55Q427.61-18.4 427.81-19.1 428.01-19.8 428.01-20.75L428.01-20.75Q428.01-23.75 425.26-23.75L425.26-23.75Q423.11-23.75 421.68-20.85 420.26-17.95 420.26-12L420.26-12Q420.26-5.85 420.36-3.93 420.46-2 421.01-0.55L421.01-0.55Q420.61-0.15 419.93 0.15 419.26 0.45 418.36 0.5L418.36 0.5Q417.26 0.5 416.51-0.23 415.76-0.95 415.76-2.2L415.76-2.2 415.76-20.05Q415.76-21.4 415.43-22 415.11-22.6 414.36-22.6L414.36-22.6Q413.41-22.6 413.06-21.9L413.06-21.9Q412.46-22.75 412.46-23.55L412.46-23.55Q412.46-24.7 413.31-25.4 414.16-26.1 415.66-26.1L415.66-26.1Q417.66-26.1 418.73-24.68 419.81-23.25 419.76-20.5L419.76-20.5Q420.61-23.25 422.31-24.7 424.01-26.15 426.41-26.15L426.41-26.15ZM456.21-6.6Q456.96-6.3 456.96-5.45L456.96-5.45Q456.96-4.9 456.61-4.05L456.61-4.05Q455.71-1.75 453.31-0.55 450.91 0.65 447.61 0.65L447.61 0.65Q442.06 0.65 438.88-2.8 435.71-6.25 435.71-12.65L435.71-12.65Q435.71-18.95 438.86-22.55 442-26.15 447.81-26.15L447.81-26.15Q452-26.15 454.58-24.25 457.16-22.35 457.16-18.85L457.16-18.85Q457.16-15.15 454.16-13.2 451.16-11.25 445.91-11.25L445.91-11.25Q443.25-11.25 440.61-11.55L440.61-11.55Q441.21-2.35 448.75-2.35L448.75-2.35Q451.46-2.35 453.43-3.48 455.41-4.6 456.21-6.6L456.21-6.6ZM447.61-24.25Q444.36-24.25 442.48-21.45 440.61-18.65 440.56-13.4L440.56-13.4Q441.61-13.3 443.91-13.2L443.91-13.2Q447.71-13.2 450-14.58 452.31-15.95 452.31-19.5L452.31-19.5Q452.31-22.1 450.96-23.18 449.61-24.25 447.61-24.25L447.61-24.25Z" opacity="1" transform="matrix(1,0,0,1,0,0)" fill="black" class="wordmark-text-0" id="SvgjsPath1035"></path></svg></g></svg></g><g transform="matrix(1,0,0,1,53.6573119968815,51.89394835024165)"><svg viewBox="0 0 288.205376006237 30.64745395564383" height="30.64745395564383" width="288.205376006237"><g transform="matrix(1,0,0,1,0,0)"><svg width="288.205376006237" viewBox="1.56 -30.76 377.4 40.14" height="30.64745395564383" data-palette-color="url(#b0ddc4c0-46c7-4eba-89f3-1a25f6c97739)"><path d="M23.93-20.26L25.05-20.26 24.85-29.3 1.56-29.3 1.56-28.03 5.47-28.03 5.47-1.27 1.56-1.27 1.56 0 24.85 0 25.05-9.03 23.93-9.03 23.05-6.3Q21.73-1.95 18.75-1.37L18.75-1.37Q18.21-1.27 17.63-1.27L17.63-1.27 10.69-1.27 10.69-14.4 20.51-14.4 20.51-15.82 10.69-15.82 10.69-28.03 17.63-28.03Q21.48-28.03 22.95-23.34L22.95-23.34Q23-23.14 23.05-23L23.05-23 23.93-20.26ZM34.37-19.63L37.74-19.63 37.74-20.85 27.54-20.85 27.54-19.63 29.59-19.63 35.64-3.22Q36.67-0.49 37.6-0.05L37.6-0.05Q38.18 0.24 39.11 0.24L39.11 0.24 40.18 0.24 47.17-18.07Q47.75-19.43 48.53-19.58L48.53-19.58Q48.78-19.63 49.02-19.63L49.02-19.63Q49.95-19.63 50.05-20.02L50.05-20.02Q50.14-20.31 50.14-20.85L50.14-20.85 42.48-20.85 42.48-19.63 46.29-19.63 40.23-3.81 34.37-19.63ZM62.54-20.21L62.54-20.21Q65.67-20.21 66.5-17.04L66.5-17.04Q66.74-16.11 66.74-15.14L66.74-15.14Q66.74-12.74 64.74-12.21L64.74-12.21Q63.62-11.91 61.57-12.01L61.57-12.01 57.22-12.11Q57.42-18.36 60.83-19.87L60.83-19.87Q61.62-20.21 62.54-20.21ZM71.28-4.83L71.28-4.83 70.11-5.22Q68.5-1.86 65.13-1.07L65.13-1.07Q64.35-0.88 63.57-0.88L63.57-0.88Q57.47-0.88 57.22-10.64L57.22-10.64Q57.22-10.69 57.22-10.74L57.22-10.74 62.54-10.64Q69.23-10.5 70.89-12.26L70.89-12.26Q71.67-13.18 71.67-14.6L71.67-14.6Q71.67-18.26 68.01-20.17L68.01-20.17Q65.57-21.44 62.5-21.44L62.5-21.44Q56.68-21.44 53.85-16.99L53.85-16.99Q52.05-14.16 52.05-10.4L52.05-10.4Q52.05-3.91 56.78-1.07L56.78-1.07Q59.37 0.49 62.64 0.49L62.64 0.49Q68.16 0.49 70.6-3.47L70.6-3.47Q70.99-4.15 71.28-4.83ZM86.08-1.22L86.08-1.22 82.51-1.22 82.51-10.64Q82.51-15.72 85.1-18.02L85.1-18.02Q85.88-18.7 86.52-18.75L86.52-18.75Q87.2-18.75 87.88-17.58L87.88-17.58Q88.71-16.11 89.54-15.82L89.54-15.82Q89.89-15.72 90.28-15.72L90.28-15.72Q91.98-15.72 92.57-17.33L92.57-17.33Q92.72-17.77 92.72-18.21L92.72-18.21Q92.72-20.51 90.42-21.09L90.42-21.09Q89.89-21.19 89.35-21.19L89.35-21.19Q86.42-21.19 84.07-18.75L84.07-18.75Q83-17.58 82.41-16.11L82.41-16.11 82.17-20.85 74.5-20.85 74.5-19.63 77.82-19.63 77.82-4Q77.82-1.81 76.41-1.42L76.41-1.42Q75.77-1.22 74.5-1.22L74.5-1.22 74.5 0 87.3 0Q87.3-1.07 86.66-1.17L86.66-1.17Q86.42-1.22 86.08-1.22ZM98.53 7.76L98.53 7.76Q97.7 7.76 97.26 6.54L97.26 6.54Q96.67 4.93 96.13 4.59L96.13 4.59Q95.64 4.25 94.96 4.25L94.96 4.25Q93.35 4.25 92.96 5.71L92.96 5.71Q92.91 5.96 92.91 6.2L92.91 6.2Q92.91 7.91 94.96 8.89L94.96 8.89Q96.08 9.38 97.45 9.38L97.45 9.38Q101.41 9.38 104.19 4.69L104.19 4.69Q105.31 2.83 106.34 0.24L106.34 0.24 113.61-18.07Q114.1-19.38 114.74-19.53L114.74-19.53Q115.03-19.58 115.37-19.58L115.37-19.58Q116.4-19.58 116.54-20.21L116.54-20.21Q116.59-20.46 116.59-20.85L116.59-20.85 109.07-20.85 109.07-19.58 112.69-19.58 106.83-4.83 100.43-19.58 103.6-19.58 103.6-20.85 93.3-20.85 93.3-19.58 95.55-19.58 104.63 0.44Q102.09 6.59 99.75 7.52L99.75 7.52Q99.16 7.76 98.53 7.76ZM127.77 0L150.18 0 150.42-10.11 149.25-10.11 148.18-6.3Q147.15-2.59 145-1.66L145-1.66Q144.08-1.27 142.95-1.27L142.95-1.27 136.9-1.27 136.9-28.03 141.05-28.03 141.05-29.3 127.77-29.3 127.77-28.03 131.67-28.03 131.67-1.27 127.77-1.27 127.77 0ZM162.43-1.22L162.43-1.22 160.24-1.22 160.24-20.85 152.08-20.85 152.08-19.63 155.55-19.63 155.55-4Q155.55-1.81 153.99-1.37L153.99-1.37Q153.3-1.22 152.08-1.22L152.08-1.22 152.08 0 163.65 0Q163.65-1.07 163.02-1.17L163.02-1.17Q162.78-1.22 162.43-1.22ZM160.77-27.69L160.77-27.69Q160.77-29.54 159.11-30.42L159.11-30.42Q158.43-30.76 157.7-30.76L157.7-30.76Q155.84-30.76 155.01-29.1L155.01-29.1Q154.67-28.42 154.67-27.69L154.67-27.69Q154.67-25.73 156.38-24.95L156.38-24.95Q157.01-24.66 157.7-24.66L157.7-24.66Q159.65-24.66 160.48-26.32L160.48-26.32Q160.77-26.95 160.77-27.69ZM171.86-19.63L175.22-19.63 175.22-20.85 165.02-20.85 165.02-19.63 167.07-19.63 173.12-3.22Q174.15-0.49 175.08-0.05L175.08-0.05Q175.66 0.24 176.59 0.24L176.59 0.24 177.67 0.24 184.65-18.07Q185.23-19.43 186.02-19.58L186.02-19.58Q186.26-19.63 186.5-19.63L186.5-19.63Q187.43-19.63 187.53-20.02L187.53-20.02Q187.63-20.31 187.63-20.85L187.63-20.85 179.96-20.85 179.96-19.63 183.77-19.63 177.71-3.81 171.86-19.63ZM200.03-20.21L200.03-20.21Q203.15-20.21 203.98-17.04L203.98-17.04Q204.23-16.11 204.23-15.14L204.23-15.14Q204.23-12.74 202.22-12.21L202.22-12.21Q201.1-11.91 199.05-12.01L199.05-12.01 194.7-12.11Q194.9-18.36 198.32-19.87L198.32-19.87Q199.1-20.21 200.03-20.21ZM208.77-4.83L208.77-4.83 207.59-5.22Q205.98-1.86 202.61-1.07L202.61-1.07Q201.83-0.88 201.05-0.88L201.05-0.88Q194.95-0.88 194.7-10.64L194.7-10.64Q194.7-10.69 194.7-10.74L194.7-10.74 200.03-10.64Q206.72-10.5 208.38-12.26L208.38-12.26Q209.16-13.18 209.16-14.6L209.16-14.6Q209.16-18.26 205.5-20.17L205.5-20.17Q203.05-21.44 199.98-21.44L199.98-21.44Q194.17-21.44 191.33-16.99L191.33-16.99Q189.53-14.16 189.53-10.4L189.53-10.4Q189.53-3.91 194.26-1.07L194.26-1.07Q196.85 0.49 200.12 0.49L200.12 0.49Q205.64 0.49 208.08-3.47L208.08-3.47Q208.47-4.15 208.77-4.83ZM220.04-0.83L220.04-0.83Q223.36-0.83 224.29-2.93L224.29-2.93Q224.58-3.56 224.58-4.25L224.58-4.25Q224.58-6.45 221.51-8.01L221.51-8.01Q220.87-8.35 219.41-8.98L219.41-8.98Q215.55-10.64 214.28-12.06L214.28-12.06Q212.91-13.62 212.91-15.72L212.91-15.72Q212.91-19.38 216.92-20.8L216.92-20.8Q218.73-21.44 220.87-21.44L220.87-21.44Q224.39-21.44 226.64-20.07L226.64-20.07Q226.64-21.48 227.37-21.68L227.37-21.68Q227.61-21.73 227.9-21.73L227.9-21.73 227.9-15.63 226.54-15.63Q226.34-20.12 221.61-20.17L221.61-20.17Q218.19-20.17 217.36-18.07L217.36-18.07Q217.16-17.53 217.16-16.94L217.16-16.94Q217.16-14.84 220.14-13.33L220.14-13.33Q220.78-13.04 222.19-12.45L222.19-12.45Q226.1-10.79 227.37-9.38L227.37-9.38Q228.83-7.71 228.83-5.52L228.83-5.52Q228.83-1.51 224.63-0.1L224.63-0.1Q222.92 0.49 220.82 0.49L220.82 0.49Q216.97 0.44 214.23-1.17L214.23-1.17Q214.23 0.1 213.6 0.29L213.6 0.29Q213.31 0.34 212.91 0.34L212.91 0.34 212.91-7.08 214.43-7.08Q214.53-0.88 220.04-0.83ZM278.49-28.03L278.49-29.3 269.55-29.3 259.78-6.54 248.9-29.3 241.18-29.3 241.18-28.03 245.09-28.03 245.09-1.27 241.18-1.27 241.18 0 251 0Q250.6-1.17 249.68-1.27L249.68-1.27 247.09-1.27 247.09-21.29 257.64 0.34 258.61 0.34 269.55-24.71 269.55-1.27 265.64-1.27 265.64 0 278.49 0Q278.49-1.07 277.7-1.22L277.7-1.22Q277.46-1.27 277.22-1.27L277.22-1.27 274.58-1.27 274.58-28.03 278.49-28.03ZM298.6 0.49L298.6 0.49Q302.02 0.49 302.8-2.59L302.8-2.59Q303.04-3.47 303.09-4.59L303.09-4.59 301.82-4.64Q301.48-1.17 299.97-1.12L299.97-1.12Q298.8-1.22 298.75-3.61L298.75-3.61 298.75-13.87Q298.65-21.39 290.49-21.44L290.49-21.44Q284.59-21.44 282.78-18.8L282.78-18.8Q282.24-17.97 282.24-17.14L282.24-17.14Q282.24-15.58 283.71-15.14L283.71-15.14Q284.1-15.04 284.49-15.04L284.49-15.04Q286-15.04 286.59-16.65L286.59-16.65Q286.69-16.89 286.83-17.38L286.83-17.38Q287.47-19.34 288.4-19.87L288.4-19.87Q289.08-20.21 290.06-20.21L290.06-20.21Q294.01-20.12 294.06-15.09L294.06-15.09 294.06-11.96Q282.34-11.82 281.12-6.64L281.12-6.64Q280.97-5.96 280.97-5.22L280.97-5.22Q280.97-1.32 284.34 0L284.34 0Q285.61 0.49 287.13 0.49L287.13 0.49Q290.84 0.49 293.08-2.05L293.08-2.05Q293.82-2.93 294.21-3.91L294.21-3.91Q294.94 0.44 298.6 0.49ZM289.13-1.51L289.13-1.51Q286.44-1.51 285.95-4.69L285.95-4.69Q285.86-5.27 285.86-5.96L285.86-5.96Q285.86-9.28 289.37-10.16L289.37-10.16Q291.18-10.6 294.06-10.64L294.06-10.64 294.06-6.4Q293.23-2.98 290.64-1.86L290.64-1.86Q289.86-1.51 289.13-1.51ZM304.21-20.75L304.21-19.53 307.63-19.53 307.63-6.4Q307.63 0 312.95 0.49L312.95 0.49Q313.39 0.54 313.78 0.54L313.78 0.54Q317.93 0.54 319.3-3.56L319.3-3.56Q319.55-4.3 319.69-5.08L319.69-5.08 318.37-5.32Q317.3-0.98 314.86-0.93L314.86-0.93Q312.37-1.03 312.32-4.69L312.32-4.69 312.32-19.53 319.4-19.53 319.4-20.75 312.32-20.75 312.32-26.42 307.63-25.39 307.63-20.75 304.21-20.75ZM320.81-20.75L320.81-19.53 324.23-19.53 324.23-6.4Q324.23 0 329.55 0.49L329.55 0.49Q329.99 0.54 330.38 0.54L330.38 0.54Q334.53 0.54 335.9-3.56L335.9-3.56Q336.14-4.3 336.29-5.08L336.29-5.08 334.97-5.32Q333.9-0.98 331.46-0.93L331.46-0.93Q328.97-1.03 328.92-4.69L328.92-4.69 328.92-19.53 336-19.53 336-20.75 328.92-20.75 328.92-26.42 324.23-25.39 324.23-20.75 320.81-20.75ZM348.79-20.21L348.79-20.21Q351.91-20.21 352.74-17.04L352.74-17.04Q352.99-16.11 352.99-15.14L352.99-15.14Q352.99-12.74 350.99-12.21L350.99-12.21Q349.86-11.91 347.81-12.01L347.81-12.01 343.47-12.11Q343.66-18.36 347.08-19.87L347.08-19.87Q347.86-20.21 348.79-20.21ZM357.53-4.83L357.53-4.83 356.36-5.22Q354.75-1.86 351.38-1.07L351.38-1.07Q350.59-0.88 349.81-0.88L349.81-0.88Q343.71-0.88 343.47-10.64L343.47-10.64Q343.47-10.69 343.47-10.74L343.47-10.74 348.79-10.64Q355.48-10.5 357.14-12.26L357.14-12.26Q357.92-13.18 357.92-14.6L357.92-14.6Q357.92-18.26 354.26-20.17L354.26-20.17Q351.82-21.44 348.74-21.44L348.74-21.44Q342.93-21.44 340.1-16.99L340.1-16.99Q338.29-14.16 338.29-10.4L338.29-10.4Q338.29-3.91 343.03-1.07L343.03-1.07Q345.61 0.49 348.89 0.49L348.89 0.49Q354.4 0.49 356.84-3.47L356.84-3.47Q357.24-4.15 357.53-4.83ZM372.32-1.22L372.32-1.22 368.76-1.22 368.76-10.64Q368.76-15.72 371.34-18.02L371.34-18.02Q372.13-18.7 372.76-18.75L372.76-18.75Q373.44-18.75 374.13-17.58L374.13-17.58Q374.96-16.11 375.79-15.82L375.79-15.82Q376.13-15.72 376.52-15.72L376.52-15.72Q378.23-15.72 378.81-17.33L378.81-17.33Q378.96-17.77 378.96-18.21L378.96-18.21Q378.96-20.51 376.67-21.09L376.67-21.09Q376.13-21.19 375.59-21.19L375.59-21.19Q372.66-21.19 370.32-18.75L370.32-18.75Q369.24-17.58 368.66-16.11L368.66-16.11 368.41-20.85 360.75-20.85 360.75-19.63 364.07-19.63 364.07-4Q364.07-1.81 362.65-1.42L362.65-1.42Q362.02-1.22 360.75-1.22L360.75-1.22 360.75 0 373.54 0Q373.54-1.07 372.91-1.17L372.91-1.17Q372.66-1.22 372.32-1.22Z" opacity="1" transform="matrix(1,0,0,1,0,0)" fill="white" class="slogan-text-1" id="SvgjsPath1034"></path></svg></g></svg></g></svg></g></svg></g><g transform="matrix(1,0,0,1,155.39780878483043,0)"><svg viewBox="0 0 84.72438243033913 58.1768311732342" height="58.1768311732342" width="84.72438243033913"><g><svg xmlns="http://www.w3.org/2000/svg" xmlns:xlink="http://www.w3.org/1999/xlink" version="1.1" x="8" y="0" viewBox="21.73099999999999 26.067000000000007 56.54299999999999 47.86499999999998" enable-background="new 0 0 100 100" xml:space="preserve" height="58.1768311732342" width="68.72438243033913" class="icon-icon-0" data-fill-palette-color="accent" id="SvgjsSvg1033"><path d="M70.252 51.597c2.928-4.099 4.62-8.977 4.829-14.102 0.02-0.46-0.155-0.907-0.481-1.232-0.326-0.326-0.754-0.501-1.233-0.48-2.619 0.109-5.17 0.608-7.588 1.453-0.144-2.58-0.665-5.117-1.563-7.571-0.158-0.433-0.49-0.779-0.915-0.956-0.427-0.176-0.906-0.167-1.323 0.026-2.346 1.085-4.496 2.506-6.423 4.233-1.11-2.3-2.56-4.449-4.329-6.37-0.156-0.17-0.349-0.297-0.558-0.382-0.212-0.096-0.443-0.149-0.68-0.149 0 0 0 0 0 0-0.46 0-0.899 0.192-1.211 0.531-1.77 1.92-3.218 4.068-4.328 6.368-1.927-1.727-4.077-3.146-6.421-4.231-0.417-0.193-0.897-0.203-1.322-0.026-0.425 0.176-0.757 0.522-0.916 0.955-0.899 2.453-1.423 4.991-1.566 7.572-2.418-0.845-4.97-1.344-7.588-1.453-0.465-0.024-0.907 0.154-1.233 0.48-0.326 0.325-0.5 0.772-0.482 1.232 0.209 5.125 1.902 10.002 4.83 14.102-5.188 2.405-8.02 5.643-8.02 9.249 0 1.966 0.844 3.832 2.508 5.547 0.417 0.429 1.035 0.596 1.613 0.442 3.21-0.871 5.715-0.646 7.01 0.648 0.688 0.688 1.076 1.728 1.152 3.09 0.039 0.706 0.525 1.309 1.208 1.496 4.427 1.219 9.539 1.863 14.781 1.863 15.853 0 28.271-5.749 28.271-13.087C78.271 57.238 75.44 54.002 70.252 51.597zM66.443 51.143c-0.023 0.023-0.053 0.038-0.075 0.064-0.094 0.109-0.202 0.232-0.305 0.35-0.3 0.338-0.597 0.677-0.918 0.998-0.459 0.459-0.94 0.89-1.432 1.305-0.149 0.126-0.303 0.244-0.455 0.365-0.36 0.288-0.728 0.566-1.104 0.831-0.169 0.119-0.339 0.238-0.511 0.353-0.416 0.277-0.842 0.538-1.274 0.786-0.123 0.071-0.243 0.147-0.367 0.216-0.56 0.308-1.131 0.59-1.714 0.849-0.128 0.057-0.26 0.104-0.389 0.159-0.462 0.194-0.93 0.375-1.404 0.539-0.191 0.066-0.385 0.128-0.578 0.188-0.441 0.14-0.889 0.265-1.34 0.377-0.183 0.046-0.364 0.096-0.549 0.137-0.086 0.02-0.174 0.029-0.259 0.048 0.021-0.031 0.038-0.064 0.059-0.095 0.019-0.029 0.038-0.058 0.057-0.087 0.002-0.002 0.004-0.004 0.006-0.006 0.005-0.008 0.01-0.015 0.015-0.022 0.007-0.009 0.013-0.019 0.02-0.027l0.026-0.041c0.019-0.027 0.043-0.064 0.045-0.067l0.008-0.012c0.005-0.007 0.007-0.015 0.011-0.021 0.221-0.343 0.433-0.689 0.636-1.042 0.003-0.005 0.006-0.011 0.01-0.016 0.142-0.246 0.277-0.495 0.411-0.746 0.002-0.003 0.005-0.005 0.007-0.008 0.002-0.002 0.003-0.005 0.004-0.007l0.067-0.124h-0.001l0.006-0.009c0.003-0.006 0.003-0.012 0.006-0.018 0.315-0.602 0.607-1.214 0.874-1.837 0.002-0.003 0.004-0.004 0.005-0.007 0.001-0.002 0.001-0.003 0.002-0.005l0.031-0.072c0.001-0.004 0.003-0.008 0.005-0.013l0.045-0.104c0.003-0.006 0.002-0.013 0.004-0.019 0.266-0.636 0.508-1.28 0.722-1.935l0.065-0.197-0.003-0.001c0.123-0.387 0.237-0.775 0.342-1.168 0.001-0.003 0.002-0.006 0.002-0.009 0.092-0.342 0.177-0.685 0.254-1.031h0.001c0.001-0.003 0-0.005 0.001-0.008 0.169-0.758 0.306-1.523 0.406-2.297 0.001-0.005 0.001-0.011 0.002-0.017 0.069-0.534 0.12-1.071 0.157-1.611 0.001-0.026 0.006-0.051 0.007-0.078 0.069-0.077 0.136-0.155 0.21-0.229 0.467-0.467 0.954-0.912 1.46-1.335 0.03-0.025 0.063-0.047 0.094-0.073 1.507-1.246 3.179-2.3 4.996-3.138 0.01-0.004 0.017-0.012 0.026-0.017 2.129-0.979 4.405-1.643 6.769-1.933C71.099 43.635 69.298 47.763 66.443 51.143zM54.76 45.969c-0.012 0.153-0.024 0.306-0.039 0.458-0.045 0.48-0.104 0.958-0.18 1.432-0.027 0.166-0.058 0.33-0.088 0.495-0.083 0.456-0.177 0.91-0.287 1.359-0.045 0.183-0.097 0.363-0.146 0.544-0.116 0.429-0.24 0.855-0.382 1.276-0.066 0.194-0.141 0.387-0.212 0.579-0.148 0.404-0.301 0.807-0.472 1.202-0.085 0.196-0.182 0.389-0.272 0.583-0.18 0.385-0.361 0.77-0.562 1.145-0.102 0.189-0.217 0.372-0.324 0.559-0.213 0.371-0.424 0.742-0.658 1.102-0.118 0.182-0.251 0.354-0.374 0.531-0.243 0.351-0.482 0.703-0.746 1.042-0.003 0.004-0.007 0.008-0.01 0.012-0.036-0.047-0.077-0.09-0.113-0.137-0.143-0.187-0.271-0.38-0.408-0.57-0.248-0.345-0.495-0.689-0.723-1.046-0.11-0.173-0.21-0.353-0.315-0.528-0.232-0.386-0.46-0.773-0.669-1.172-0.087-0.166-0.165-0.336-0.248-0.504-0.204-0.415-0.402-0.833-0.581-1.259-0.072-0.172-0.136-0.347-0.204-0.521-0.167-0.426-0.325-0.854-0.465-1.29-0.062-0.189-0.116-0.382-0.172-0.574-0.124-0.42-0.238-0.844-0.338-1.272-0.05-0.216-0.094-0.433-0.138-0.65-0.082-0.409-0.155-0.819-0.215-1.233-0.034-0.237-0.063-0.476-0.09-0.714-0.045-0.404-0.081-0.81-0.104-1.216-0.005-0.095-0.007-0.191-0.012-0.287 0-0.005 0.001-0.01 0.001-0.015 0-0.013-0.003-0.025-0.004-0.039-0.014-0.325-0.041-0.648-0.041-0.975 0-0.656 0.03-1.309 0.086-1.958 0.018-0.202 0.053-0.4 0.076-0.601 0.051-0.449 0.102-0.897 0.179-1.341 0.037-0.213 0.091-0.422 0.134-0.633 0.088-0.432 0.177-0.864 0.291-1.291 0.052-0.196 0.118-0.389 0.175-0.583 0.129-0.438 0.263-0.874 0.418-1.305 0.813-2.252 1.975-4.38 3.471-6.298 3.127 4.008 4.83 8.915 4.83 14.01C54.83 44.851 54.801 45.411 54.76 45.969zM56.873 36.247c1.451-1.443 3.065-2.67 4.821-3.666 0.547 1.973 0.824 3.997 0.831 6.045-1.572 0.803-3.062 1.767-4.449 2.881-0.024 0.02-0.051 0.038-0.075 0.057-0.012-0.109-0.03-0.217-0.043-0.326-0.033-0.288-0.069-0.576-0.112-0.862-0.022-0.147-0.048-0.294-0.073-0.442-0.049-0.288-0.101-0.576-0.159-0.862-0.027-0.135-0.057-0.271-0.087-0.406-0.067-0.306-0.141-0.61-0.219-0.914-0.028-0.111-0.058-0.223-0.088-0.335-0.093-0.339-0.193-0.676-0.299-1.011C56.903 36.354 56.891 36.3 56.873 36.247zM38.307 32.581c1.755 0.996 3.369 2.224 4.822 3.667-0.558 1.722-0.937 3.502-1.126 5.319-0.022-0.019-0.046-0.035-0.069-0.053-1.39-1.118-2.884-2.084-4.459-2.889C37.48 36.576 37.76 34.553 38.307 32.581zM35.131 41.161c0.009 0.004 0.017 0.012 0.026 0.017 1.812 0.834 3.478 1.885 4.982 3.127 0.036 0.029 0.074 0.055 0.11 0.085 0.506 0.423 0.993 0.868 1.459 1.334 0.074 0.075 0.142 0.153 0.21 0.231 0.294 4.575 1.784 8.959 4.315 12.754-0.082-0.018-0.166-0.027-0.248-0.046-0.197-0.044-0.391-0.096-0.586-0.146-0.437-0.109-0.87-0.229-1.298-0.364-0.204-0.064-0.407-0.129-0.609-0.199-0.463-0.16-0.92-0.337-1.372-0.527-0.137-0.058-0.278-0.107-0.414-0.168-0.58-0.258-1.149-0.539-1.706-0.845-0.129-0.071-0.253-0.151-0.381-0.225-0.429-0.246-0.851-0.505-1.263-0.779-0.173-0.114-0.343-0.233-0.513-0.354-0.376-0.266-0.744-0.544-1.104-0.832-0.151-0.121-0.305-0.239-0.453-0.364-0.493-0.415-0.974-0.846-1.434-1.306-0.321-0.32-0.618-0.659-0.917-0.996-0.103-0.118-0.209-0.237-0.308-0.354-0.021-0.024-0.05-0.039-0.072-0.062-2.854-3.379-4.654-7.507-5.194-11.916C30.726 39.518 33.002 40.182 35.131 41.161zM50 70.638c-4.53 0-8.941-0.505-12.834-1.465-0.281-1.638-0.943-2.985-1.977-4.02-2.013-2.013-5.185-2.623-9.187-1.746-0.65-0.854-0.979-1.712-0.979-2.562 0-2.333 2.552-4.762 6.885-6.607 0.203 0.217 0.405 0.435 0.616 0.646 4.354 4.355 10.062 7.002 16.182 7.53 0.408 0.035 0.817 0.061 1.229 0.077 0.021 0.001 0.042 0.002 0.062 0.002 0 0 0 0 0.001 0h0.022c0.003 0 0.006-0.001 0.009-0.001 0.012 0 0.024 0 0.036-0.001 6.583-0.26 12.766-2.962 17.411-7.607 0.211-0.211 0.413-0.429 0.616-0.646 4.334 1.846 6.885 4.274 6.885 6.607C74.977 65.478 64.719 70.638 50 70.638z" fill="black"></path></svg></g></svg></g><g><rect width="155.39780878483043" height="3.786053460126634" y="53.39077771310757" x="240.12219121516955" fill="black"></rect><rect width="155.39780878483043" height="3.786053460126634" y="53.39077771310757" x="0" fill="black"></rect><rect width="155.39780878483043" height="3.786053460126634" y="45.8186707928543" x="240.12219121516955" fill="black"></rect><rect width="155.39780878483043" height="3.786053460126634" y="45.8186707928543" x="0" fill="black"></rect></g></svg></g><defs><mask></mask></defs></svg><rect width="395.52" height="150.62936819149306" fill="black" stroke="none" visibility="hidden"></rect></g></mask><linearGradient x1="0.054" x2="0.941" y1="0.5" y2="0.5" id="b0ddc4c0-46c7-4eba-89f3-1a25f6c97739"><stop stop-color="#8c8c8c" offset="0"></stop><stop stop-color="#e3e4e5" offset="0.498"></stop><stop stop-color="#8c8c8c" offset="1"></stop></linearGradient><rect width="395.52" height="150.62936819149306" fill="url(#b0ddc4c0-46c7-4eba-89f3-1a25f6c97739)" mask="url(#a07a56af-eb39-4390-8636-e05e311ef173)" data-fill-palette-color="secondary"></rect></svg><rect width="395.52" height="150.62936819149306" fill="none" stroke="none" visibility="hidden"></rect></g></svg></g></svg>